<svg width="20" height="24" viewBox="0 0 20 24" fill="none" xmlns="http://www.w3.org/2000/svg">
<path d="M19.6462 0.714581L16.5018 0.247681C16.4047 0.247681 16.3076 0.247706 16.3076 0.333454L14.9683 2.01985C14.8995 2.13136 14.8689 2.26154 14.881 2.39139C14.881 2.48666 14.784 2.67722 14.6869 2.58195L13.6388 2.30567C13.4447 2.30567 13.2603 2.30567 13.1632 2.4867L8.87355 7.91742C8.77649 8.0127 8.67949 8.01268 8.49509 8.01268L6.87431 7.26002C6.80398 7.21373 6.72122 7.18902 6.63654 7.18902C6.55187 7.18902 6.46911 7.21373 6.39877 7.26002L5.53501 7.82211C5.46517 7.86965 5.38222 7.89515 5.29724 7.89515C5.21226 7.89515 5.12931 7.86965 5.05947 7.82211L4.68102 7.63155C4.61829 7.60409 4.55037 7.58976 4.4817 7.58945C4.41302 7.58914 4.34506 7.60286 4.28207 7.62975C4.21909 7.65663 4.16247 7.69612 4.11586 7.74564C4.06925 7.79517 4.0337 7.85366 4.01137 7.91742L3.72989 9.2227C3.69337 9.36137 3.70076 9.50769 3.75103 9.64215C3.80131 9.77661 3.89213 9.89281 4.01137 9.97536L4.77805 10.4422L6.77728 11.6618L7.74779 12.2238C7.88201 12.299 8.03714 12.3304 8.19069 12.3132C8.34423 12.2961 8.48822 12.2314 8.60183 12.1286L10.2226 10.728C10.368 10.6416 10.5397 10.6079 10.7078 10.6328L11.1833 10.909C11.3677 11.0043 11.5618 11.0043 11.6589 10.8138L12.5129 10.0706C12.5722 10.008 12.6499 9.96522 12.7352 9.94814C12.8205 9.93106 12.909 9.94058 12.9885 9.97536L14.2307 10.5375C14.4248 10.6328 14.6093 10.5375 14.8034 10.4422L15.3759 9.69908L19.6655 4.26835C19.8499 3.98252 19.7626 3.61094 19.3744 3.61094L18.4039 3.42992C18.2098 3.42992 18.1224 3.14409 18.2098 2.95354L19.7432 1.18142C19.9373 0.990871 19.8306 0.714581 19.6462 0.714581Z" fill="white"/>
<path d="M5.37972 11.6617C5.28267 11.5664 5.18561 11.6616 5.18561 11.7569L5.66115 12.9669V13.2527L5.28269 14.8438C5.27644 14.8941 5.28193 14.9451 5.29875 14.993C5.31556 15.0409 5.34324 15.0844 5.37972 15.1202L6.5152 15.9681C6.57098 16.0098 6.63918 16.0325 6.70931 16.0325C6.77944 16.0325 6.84764 16.0098 6.90342 15.9681L8.13598 14.9391C8.17433 14.9031 8.22028 14.8759 8.27062 14.8594C8.32097 14.8429 8.37444 14.8376 8.42712 14.8438L9.75671 14.6533C9.85376 14.6533 9.85376 14.558 9.75671 14.4628L5.37972 11.6617Z" fill="white"/>
<path d="M4.96244 15.6824C4.94621 15.6607 4.92498 15.6431 4.90054 15.631C4.87609 15.6188 4.84909 15.6125 4.8217 15.6125C4.7943 15.6125 4.7673 15.6188 4.74285 15.631C4.71841 15.6431 4.69724 15.6607 4.68101 15.6824L3.7105 16.1492C3.68477 16.1492 3.66005 16.1593 3.64185 16.1771C3.62365 16.195 3.61342 16.2193 3.61342 16.2445L1.51715 21.2941H1.61417L2.08971 21.1131V21.2084L0.56601 23.6379C0.56601 23.7332 0.566036 23.7332 0.653381 23.7332L5.99117 18.3978C6.08822 18.3978 6.0882 18.3025 6.0882 18.2072L6.18529 16.8066C6.18529 16.7114 6.18525 16.6161 6.0882 16.6161L4.96244 15.6824Z" fill="white"/>
</svg>
